<?xml version="1.0" standalone="no"?>
<!DOCTYPE svg PUBLIC "-//W3C//DTD SVG 20010904//EN"
 "http://www.w3.org/TR/2001/REC-SVG-20010904/DTD/svg10.dtd">
<svg version="1.0" xmlns="http://www.w3.org/2000/svg"
 width="361.000000pt" height="189.000000pt" viewBox="0 0 361.000000 189.000000"
 preserveAspectRatio="xMidYMid meet">

<g transform="translate(0.000000,189.000000) scale(0.100000,-0.100000)"
fill="#000000" stroke="none">
<path d="M3160 1680 c-15 -37 -6 -50 17 -27 12 12 13 17 4 17 -8 0 -10 7 -6
20 10 31 -1 24 -15 -10z"/>
<path d="M3199 1685 c-1 -3 -2 -8 -3 -12 -1 -5 -6 -18 -10 -31 -12 -35 -1 -38
34 -8 17 14 27 26 21 26 -5 0 -13 -4 -16 -10 -12 -19 -26 -11 -15 9 5 11 10
22 10 25 0 7 -20 8 -21 1z"/>
<path d="M3281 1556 c-7 -8 -10 -24 -6 -35 14 -45 79 -30 73 17 -2 21 -9 28
-29 30 -14 2 -31 -4 -38 -12z m54 -21 c0 -22 -31 -33 -48 -16 -7 7 -6 15 3 26
17 21 45 15 45 -10z"/>
<path d="M3380 1418 c-21 -9 -22 -12 -7 -15 20 -5 22 -14 5 -31 -9 -9 -9 -12
0 -12 7 0 12 5 12 10 0 6 9 10 19 10 24 0 33 13 25 34 -7 18 -19 19 -54 4z
m42 -13 c0 -5 -5 -11 -11 -13 -6 -2 -11 4 -11 13 0 9 5 15 11 13 6 -2 11 -8
11 -13z"/>
<path d="M3053 1357 c-16 -18 -42 -51 -58 -74 -27 -37 -37 -43 -92 -54 -73
-15 -88 -22 -78 -39 5 -8 23 -9 57 -5 l50 7 -39 -72 c-31 -59 -52 -82 -118
-134 -116 -91 -175 -129 -175 -114 0 7 9 24 20 38 11 14 20 30 20 36 0 6 11
21 25 34 14 13 27 38 31 56 3 18 11 32 17 31 6 -1 17 11 25 27 12 23 12 30 1
37 -19 11 -32 -3 -81 -83 -35 -56 -61 -83 -141 -144 -149 -112 -158 -101 -55
69 35 59 57 105 54 114 -6 14 -9 13 -27 -3 -11 -10 -36 -40 -56 -66 -37 -51
-190 -188 -210 -188 -24 0 -22 18 6 46 15 16 47 62 71 102 35 59 41 75 29 82
-9 6 -20 3 -31 -7 -24 -22 -103 -149 -134 -218 -25 -54 -25 -57 -8 -76 23 -26
28 -25 77 19 23 21 62 53 86 72 l43 34 -7 -43 c-7 -45 5 -71 34 -71 10 0 53
29 96 65 69 58 109 85 77 53 -16 -16 -15 -75 1 -81 20 -7 37 4 222 144 7 5 11
0 11 -11 0 -10 -3 -17 -7 -15 -11 8 -89 -170 -89 -203 0 -36 15 -72 30 -72 5
0 8 15 7 33 0 17 3 41 8 51 6 14 5 17 -3 12 -13 -8 -9 8 15 63 12 26 17 30 24
20 7 -10 8 -5 3 12 -3 15 -1 30 5 33 6 4 11 -1 12 -11 0 -14 3 -12 10 6 7 18
6 27 -3 33 -9 6 -8 8 6 6 11 -2 25 7 34 22 l16 25 -22 -19 c-12 -11 -22 -15
-22 -10 1 13 30 50 36 46 3 -2 9 0 12 4 4 4 1 4 -5 0 -16 -9 -16 -5 -2 31 7
20 12 24 18 14 6 -9 25 16 60 81 l52 93 82 25 c94 29 72 42 -25 15 -72 -20
-89 -13 -21 9 26 9 36 14 21 12 l-27 -3 17 30 c9 17 34 48 55 69 35 36 36 38
13 38 -15 0 -35 -13 -53 -33z"/>
<path d="M3445 1283 c-11 -3 -24 -10 -30 -15 -7 -8 -5 -9 8 -5 16 6 16 5 0
-21 -15 -24 -13 -24 20 7 47 44 47 45 2 34z"/>
<path d="M3465 1250 c3 -5 11 -10 16 -10 6 0 7 5 4 10 -3 6 -11 10 -16 10 -6
0 -7 -4 -4 -10z"/>
<path d="M2755 1205 c-3 -8 -7 -22 -10 -31 -3 -9 -2 -14 2 -12 51 24 63 33 63
45 0 18 -49 17 -55 -2z"/>
<path d="M2184 1090 c-66 -95 -85 -113 -99 -90 -12 19 -71 10 -116 -18 -56
-36 -152 -142 -180 -199 -13 -28 -19 -53 -15 -69 15 -59 67 -39 184 71 45 42
82 71 82 64 0 -8 11 4 25 26 38 62 29 35 -16 -49 -22 -42 -38 -80 -34 -86 3
-5 2 -10 -4 -10 -6 0 -8 -8 -5 -17 5 -17 5 -17 -6 -1 -8 14 -5 28 15 69 15 28
24 54 21 57 -3 3 -19 -25 -36 -61 -30 -66 -39 -96 -20 -67 11 17 13 1 4 -25
-5 -13 -8 -14 -15 -3 -6 9 -9 1 -10 -22 -2 -52 1 -63 20 -83 16 -17 17 -15 17
30 0 42 13 73 93 223 51 96 118 210 147 253 48 68 53 79 40 92 -8 8 -17 15
-19 15 -3 0 -36 -45 -73 -100z m-107 -116 c3 -10 -213 -230 -243 -247 -27 -15
-34 6 -15 46 53 114 239 259 258 201z"/>
<path d="M3431 1113 c-2 -32 20 -40 37 -15 16 25 37 30 28 7 -3 -8 -1 -15 4
-15 16 0 11 30 -6 37 -10 4 -20 0 -26 -10 -12 -22 -25 -22 -31 1 -4 13 -5 12
-6 -5z"/>
<path d="M1753 989 c-24 -12 -86 -62 -138 -111 -53 -50 -97 -89 -100 -87 -2 2
17 40 41 83 33 58 41 81 32 87 -16 10 -22 6 -55 -46 -15 -25 -32 -45 -37 -45
-4 0 -34 -16 -65 -34 -31 -19 -69 -40 -84 -45 -24 -9 -26 -8 -24 12 1 12 8 28
14 35 21 22 27 62 12 77 -8 8 -29 16 -48 17 -31 3 -38 -2 -77 -52 -41 -54
-240 -215 -296 -241 -15 -6 -25 -16 -22 -21 5 -8 -45 0 -56 9 -2 2 1 13 8 23
7 11 12 25 12 31 0 21 131 156 173 178 31 17 47 8 29 -17 -56 -78 -61 -100
-14 -65 38 28 65 78 57 104 -6 18 -12 20 -41 16 -97 -16 -301 -242 -267 -296
28 -45 112 -14 245 91 49 37 90 68 92 68 3 0 -2 -13 -10 -30 -9 -17 -14 -49
-12 -77 2 -40 7 -49 24 -51 28 -4 78 39 110 94 22 38 31 44 59 44 33 0 87 31
138 78 35 33 34 25 -4 -49 -34 -69 -35 -102 -1 -107 12 -2 22 2 22 8 0 28 291
302 306 287 3 -3 -22 -52 -56 -109 -65 -110 -99 -202 -83 -226 16 -26 24 -18
48 40 13 31 48 101 78 155 58 104 72 143 62 174 -8 24 -20 24 -72 -2z m42 3
c-32 -27 -118 -84 -107 -70 14 17 100 78 111 78 3 0 1 -4 -4 -8z m-497 -156
c-22 -47 -38 -59 -38 -29 0 17 49 87 56 80 3 -3 -5 -25 -18 -51z m443 -3 c-12
-20 -14 -14 -5 12 4 9 9 14 11 11 3 -2 0 -13 -6 -23z m-501 -87 c0 -6 -18 -31
-40 -56 -47 -54 -53 -36 -14 41 21 42 28 48 40 39 7 -7 14 -18 14 -24z m1 -39
c-13 -12 -20 -15 -16 -7 14 26 28 41 33 35 3 -3 -5 -16 -17 -28z"/>
<path d="M2760 790 c-6 -12 -9 -24 -7 -27 3 -2 11 5 17 17 6 12 9 24 7 27 -3
2 -11 -5 -17 -17z"/>
</g>
</svg>
